# xmcd CD database file
#
# Track frame offsets:
#	150
#	13952
#	26330
#	38992
#	49617
#	66877
#	84362
#	98165
#	111140
#	125245
#	140285
#	150830
#	162407
#	172680
#	183222
#	192020
#
# Disc length: 2755 seconds
#
# Revision: 0
# Processed by: cddbd v1.4PL0 Copyright (c) Steve Scherf et al.
# Submitted via: CDex 1.50
#
DISCID=c20ac110
DTITLE=Anne Murray and Kenny Rogers - A Collection of Special Songs
DYEAR=1900
DGENRE=Country
TTITLE0=AM - Danny's Song
TTITLE1=KR - Reuben James
TTITLE2=AM - I Just Fall in Love Again
TTITLE3=KR - She Even Woke Me Up to Say Goodbye
TTITLE4=AM - Nobody Loves Me Like You Do
TTITLE5=KR - Something's Burning
TTITLE6=AM - Another Sleepless Night
TTITLE7=KR - Ruby Don't Take Your Love to Town
TTITLE8=AM - A Little Good News
TTITLE9=KR - Conditions (I Just Dropped In)
TTITLE10=AM - For Baby
TTITLE11=KR - Poem for My Lady
TTITLE12=AM - Some Birds
TTITLE13=KR - We All Got to Help Each Other
TTITLE14=AM - Paths of Victory
TTITLE15=KR - Hear the Call
EXTD=
EXTT0=
EXTT1=
EXTT2=
EXTT3=
EXTT4=
EXTT5=
EXTT6=
EXTT7=
EXTT8=
EXTT9=
EXTT10=
EXTT11=
EXTT12=
EXTT13=
EXTT14=
EXTT15=
PLAYORDER=
